<svg width="475" height="474" viewBox="0 0 475 474" fill="none" xmlns="http://www.w3.org/2000/svg">
<path d="M341.676 334.545L339.648 334.038L338.887 333.784L337.62 333.277C337.113 333.277 336.606 333.024 336.099 332.77C335.592 332.517 335.085 332.263 334.832 332.01C334.325 331.503 334.072 330.996 333.818 330.489C333.565 329.982 333.565 329.728 333.565 329.221V328.968H333.311L330.016 327.954H329.763L329.509 328.207L329.256 328.461L329.002 328.714L328.749 328.968C328.242 329.475 327.735 329.728 326.974 329.982C326.467 329.982 325.96 329.982 325.454 329.982C324.947 329.982 324.44 329.728 323.933 329.728L321.652 329.221L320.638 328.968L319.624 328.714C319.117 328.714 318.61 328.461 318.103 328.207C317.596 327.954 317.089 327.701 316.582 327.447C316.075 326.94 315.568 326.433 315.315 325.926C315.061 325.673 315.061 325.166 315.061 324.659V324.405H314.808L311.513 323.645H311.259L311.006 323.898L310.752 324.152H310.499L310.245 324.405C310.245 324.659 309.992 324.659 309.992 324.912C309.485 325.419 308.978 325.673 308.218 325.926C307.711 326.18 307.204 326.18 306.697 326.18C306.19 326.18 305.683 326.18 305.176 325.926L302.134 325.419L301.121 325.166C300.614 325.166 300.107 324.912 299.6 324.912C299.093 324.659 298.586 324.405 298.079 324.152C297.572 323.645 297.065 323.138 296.812 322.631C296.558 322.377 296.558 321.87 296.558 321.363V321.11H296.305L293.01 320.603H292.756L292.503 320.856V321.11H292.249L291.996 321.363C291.996 321.617 291.742 321.617 291.742 321.87C291.235 322.377 290.728 322.631 289.968 322.884C289.461 323.138 288.954 323.138 288.447 323.138C287.94 323.138 287.433 323.138 286.926 323.138L285.659 322.884L284.645 322.631L282.871 322.377C282.364 322.377 281.857 322.124 281.35 322.124C280.843 322.124 280.336 321.87 279.829 321.617C279.322 321.11 278.815 320.856 278.562 320.096C278.308 319.842 278.308 319.336 278.055 318.829V318.575H277.801L273.746 318.068H273.493V318.322V318.575H273.239V318.829C273.239 319.082 272.986 319.336 272.986 319.589C272.479 320.096 271.972 320.35 271.465 320.603C270.958 320.856 270.451 320.856 269.944 320.856C269.437 320.856 268.93 320.856 268.423 320.856H267.663H266.395L264.368 320.603C263.861 320.603 263.354 320.603 262.847 320.349C262.34 320.349 261.833 320.096 261.326 319.843C260.819 319.589 260.312 319.082 259.805 318.322C259.552 318.068 259.552 317.561 259.298 317.308V317.054H259.045L255.75 316.801H255.496V317.054V317.308H255.243V317.561C255.243 317.815 254.989 318.068 254.736 318.322C254.229 318.829 253.975 319.082 253.469 319.336C252.962 319.589 252.455 319.589 251.948 319.843C251.441 319.843 250.934 319.843 250.427 319.843H248.146H246.118C245.611 319.843 245.104 319.843 244.597 319.843C244.09 319.843 243.583 319.589 243.076 319.336C242.569 319.082 242.062 318.575 241.555 318.068C241.302 317.815 241.049 317.308 241.049 317.054V316.801H236.233V317.054V317.308H235.979V317.561C235.979 317.815 235.726 318.068 235.472 318.575C235.219 319.082 234.712 319.336 234.205 319.589C233.698 319.843 233.191 320.096 232.684 320.096C232.177 320.096 231.67 320.096 231.163 320.096H229.136H227.108C226.601 320.096 226.094 320.096 225.587 320.096C225.08 320.096 224.573 319.843 224.066 319.589C223.559 319.336 223.052 318.829 222.545 318.322C222.292 318.068 222.038 317.561 222.038 317.308V317.054H221.785L218.49 317.308H217.729V317.561V317.815H217.476V318.068C217.476 318.322 217.223 318.829 216.969 319.082C216.716 319.589 216.209 319.842 215.955 320.096C215.448 320.349 214.941 320.603 214.434 320.603C213.927 320.603 213.42 320.856 212.914 320.856L210.886 321.11H209.618H208.858C208.351 321.11 207.844 321.11 207.337 321.11C206.83 321.11 206.323 321.11 205.816 320.856C205.31 320.603 204.549 320.096 204.296 319.589C204.042 319.336 203.789 318.829 203.789 318.575V318.322H202.521L198.466 318.829H198.212V319.082V319.336H197.452V319.589C197.452 320.096 197.199 320.35 196.945 320.603C196.692 321.11 196.185 321.363 195.931 321.617C195.424 321.87 194.917 322.124 194.41 322.124C193.903 322.377 193.396 322.377 192.89 322.377L191.115 322.631L190.101 322.884L188.834 323.138C188.327 323.138 187.82 323.138 187.313 323.138C186.806 323.138 186.299 323.138 185.792 322.884C185.285 322.631 184.525 322.377 184.018 321.87C183.765 321.617 183.511 321.11 183.258 320.856L183.004 320.603H182.751L179.456 321.11H179.202V321.617H178.949V321.87C178.949 322.377 178.695 322.631 178.695 323.138C178.442 323.391 178.188 323.898 177.681 324.152C177.174 324.405 176.668 324.659 176.161 324.912C175.654 325.166 174.893 325.166 174.64 325.166L173.626 325.419L170.584 325.926C170.077 325.926 169.57 326.18 169.064 326.18C168.557 326.18 168.05 326.18 167.543 325.926C166.782 325.673 166.275 325.419 165.768 324.912C165.515 324.659 165.261 324.405 165.008 323.898L164.755 323.645H164.501L161.206 324.405H160.952V324.912H160.699V325.166C160.699 325.673 160.699 325.926 160.446 326.433V326.687C160.192 326.94 159.939 327.194 159.685 327.701C159.178 327.954 158.925 328.207 158.164 328.461C157.657 328.714 157.15 328.714 156.644 328.968L155.63 329.221H154.362L152.335 329.728C151.828 329.728 151.321 329.982 150.814 329.982C150.307 329.982 149.8 329.982 149.293 329.982C148.533 329.728 148.026 329.475 147.519 328.968C147.265 328.714 147.012 328.461 146.758 327.954L146.505 327.701H146.251L142.956 328.714H142.703V329.221H142.449V329.475C142.449 329.982 142.449 330.235 142.196 330.742L141.942 330.996C141.689 331.249 141.435 331.503 141.182 331.756C140.675 332.01 140.422 332.517 139.915 332.517C139.408 332.77 138.901 333.024 138.394 333.024L137.126 333.531L136.366 333.784L134.592 334.291H134.338C133.831 334.291 133.324 334.545 132.818 334.545C132.564 334.545 132.057 334.545 131.804 334.545C131.804 334.798 131.804 334.798 132.057 335.052H131.55C132.311 337.586 134.592 339.361 137.126 339.361C140.168 338.854 142.956 338.347 145.744 337.333C161.206 333.784 200.494 325.673 237.753 325.673C275.013 325.673 314.047 334.038 329.256 337.586C332.044 338.6 335.085 339.107 337.874 339.614C339.648 339.614 341.169 338.854 342.436 337.586C343.196 336.826 343.703 335.812 343.957 334.798C343.703 334.798 343.196 334.798 342.943 334.798C342.689 334.798 342.182 334.798 341.676 334.545ZM87.1932 383.974C88.4605 380.679 87.7001 376.876 85.4189 374.341C84.6585 373.581 83.6446 372.821 82.6307 372.06C81.6169 371.553 80.603 371.046 79.3356 371.046C78.3218 370.793 77.0544 371.046 76.0406 371.3C75.0267 371.553 74.0128 372.314 72.9989 373.074C72.2385 373.835 71.7316 374.595 71.2247 375.355C70.9712 376.116 70.7177 377.13 70.4642 377.89C70.4642 378.904 70.4642 379.665 70.7177 380.679C70.9712 381.692 71.2246 382.706 71.4781 383.72L72.2385 385.748V386.002C72.492 387.016 72.7455 387.776 72.9989 388.536C73.2524 389.297 73.2524 389.804 73.2524 390.564C73.2524 392.085 72.492 393.606 71.4781 394.62C70.9712 395.127 70.2108 395.634 69.1969 395.888C68.4365 396.141 67.4226 396.141 66.6622 396.141C65.9018 396.141 64.8879 395.888 64.1275 395.381C63.3671 394.874 62.6067 394.367 62.0998 393.86C61.0859 392.592 60.3255 391.071 60.579 389.55C60.579 388.03 61.3394 386.255 62.3533 384.988L59.3116 382.96C57.7908 384.988 57.0304 387.269 57.0304 389.55C57.0304 391.832 58.0443 394.367 59.8186 395.888C60.8324 396.901 61.8463 397.915 63.1137 398.422C64.381 398.929 65.6483 399.436 66.9157 399.436C68.183 399.436 69.4504 399.436 70.7177 398.929C71.9851 398.422 73.2524 397.662 74.2663 396.901C75.0267 396.141 75.7871 395.381 76.294 394.367C76.801 393.353 77.0544 392.592 77.0544 391.578C77.0544 390.564 77.0544 389.55 76.801 388.536C76.5475 387.269 76.294 386.255 75.7871 385.241L75.0267 382.96C74.7732 382.199 74.5197 381.439 74.5197 380.932C74.2663 380.425 74.2663 379.665 74.2663 379.158C74.2663 378.651 74.2663 377.89 74.5197 377.383C74.7732 376.876 75.0267 376.369 75.5336 375.862C76.5475 374.848 77.8148 374.341 79.3356 374.595C80.603 374.848 82.1238 375.355 82.8842 376.369C83.6446 377.13 84.1516 378.144 84.405 379.411C84.6585 380.679 84.405 381.692 83.8981 382.96L87.1932 383.974ZM341.169 319.336C296.812 304.634 238.007 304.634 238.007 304.634C237.753 304.634 179.202 304.634 134.845 319.336C133.578 319.843 132.817 320.603 132.311 321.87C131.804 322.884 131.55 323.898 131.55 324.912V326.687C131.55 326.94 131.55 327.194 131.55 327.447L133.324 326.94L134.085 326.687L135.352 326.433C135.859 326.18 136.366 326.18 137.126 326.18C137.633 326.18 138.14 326.18 138.901 326.18C139.661 326.433 140.168 326.687 140.675 326.94C140.928 327.194 141.182 327.447 141.435 327.954L141.689 328.207L144.984 327.194H145.237V326.687H145.491V326.433C145.491 325.926 145.491 325.673 145.744 325.166V324.912C145.998 324.659 146.251 324.152 146.505 323.898C147.012 323.645 147.519 323.138 148.026 323.138C148.533 322.884 149.039 322.884 149.546 322.631L151.321 322.124L151.828 321.87L153.602 321.617C154.109 321.617 154.616 321.363 155.376 321.363C155.883 321.363 156.39 321.363 157.15 321.363C157.911 321.617 158.418 321.87 158.925 322.377C159.178 322.631 159.432 322.884 159.685 323.391L159.939 323.645H160.192L163.487 322.884H163.741V322.377H163.994V321.617C163.994 321.11 164.248 320.856 164.248 320.349C164.501 320.096 164.755 319.589 165.008 319.336C165.515 319.082 166.022 318.829 166.529 318.575C167.036 318.322 167.543 318.322 168.05 318.068L170.077 317.815L171.091 317.561L172.105 317.308C172.612 317.308 173.119 317.054 173.626 317.054C174.133 317.054 174.64 317.054 175.147 317.308C175.907 317.561 176.414 317.815 176.921 318.322C177.174 318.575 177.428 319.082 177.681 319.336L177.935 319.589H178.188L181.737 319.082H181.99V318.575H182.244V318.322C182.244 317.815 182.497 317.561 182.497 317.308C182.751 316.801 183.004 316.547 183.511 316.294C184.018 316.04 184.525 315.787 185.032 315.533C185.539 315.533 186.046 315.28 186.806 315.28L187.82 315.026H188.581L190.355 314.773H190.608C191.115 314.773 191.622 314.773 192.383 314.773C192.89 314.773 193.396 314.773 193.903 315.026C194.41 315.28 195.171 315.533 195.678 316.04C195.931 316.294 196.185 316.801 196.185 317.054V317.308H197.452L201.507 316.801H201.761V316.547V316.294H202.014V316.547C202.014 316.294 202.268 315.787 202.521 315.533C202.775 315.026 203.282 314.773 203.535 314.519C204.042 314.266 204.549 314.012 205.056 314.012C205.563 314.012 206.323 313.759 206.83 313.759L208.858 313.505H209.112H210.886C211.393 313.505 211.9 313.505 212.66 313.505C213.167 313.505 213.674 313.759 214.181 313.759C214.688 314.012 215.448 314.519 215.702 315.026C215.955 315.28 216.209 315.787 216.209 316.04V316.294H216.462L219.757 316.04H220.011V315.787V315.533H220.264V315.28C220.264 315.026 220.518 314.519 220.771 314.266C221.025 313.759 221.531 313.505 222.038 313.252C222.545 312.998 223.052 312.745 223.559 312.745C224.066 312.745 224.573 312.491 225.334 312.491H227.361H229.389C229.896 312.491 230.403 312.491 231.163 312.491C231.67 312.491 232.177 312.745 232.684 312.999C233.191 313.252 233.698 313.759 234.205 314.266C234.458 314.519 234.712 315.026 234.712 315.28V315.533H238.514V315.28V315.026H238.767V314.773C238.767 314.519 239.021 314.266 239.274 314.012C239.528 313.505 240.035 313.252 240.542 312.999C241.049 312.745 241.555 312.491 242.062 312.491C242.569 312.491 243.076 312.491 243.583 312.491H245.611H247.639C248.146 312.491 248.653 312.492 249.413 312.745C249.92 312.745 250.427 312.998 250.934 313.252C251.441 313.505 251.948 314.012 252.455 314.519C252.708 314.773 252.962 315.28 252.962 315.533V315.787H253.215L256.51 316.04H256.764V315.787V315.533H257.017V315.28C257.017 315.026 257.271 314.773 257.271 314.519C257.777 314.012 258.284 313.759 258.791 313.505C259.298 313.252 259.805 313.252 260.312 313.252C260.819 313.252 261.326 313.252 262.086 313.252H263.861H264.114L266.142 313.505C266.649 313.505 267.156 313.505 267.916 313.759C268.423 313.759 268.93 314.012 269.437 314.266C269.944 314.519 270.451 315.026 270.958 315.787C271.211 316.04 271.211 316.547 271.465 317.054V317.308H271.718L275.774 317.815H276.027V317.561V317.308H276.281V317.054C276.281 316.801 276.534 316.547 276.534 316.547C277.041 316.04 277.548 315.787 278.055 315.533C278.562 315.28 279.069 315.28 279.576 315.28C280.083 315.28 280.59 315.28 281.35 315.28H283.378L285.152 315.533H285.913L286.926 315.787C287.433 315.787 288.194 316.04 288.701 316.04C289.208 316.294 289.715 316.294 290.221 316.801C290.728 317.308 291.235 317.815 291.489 318.322C291.742 318.575 291.742 319.082 291.742 319.589V319.843H291.996L295.291 320.349H295.544L295.798 320.096V319.843H296.051L296.305 319.589C296.305 319.336 296.558 319.336 296.558 319.082C297.065 318.575 297.572 318.322 298.332 318.068C298.839 317.815 299.346 317.815 299.853 317.815C300.36 317.815 300.867 317.815 301.374 318.068L302.388 318.322L303.402 318.575L305.43 318.829C305.937 318.829 306.443 319.082 306.95 319.336C307.457 319.589 307.964 319.842 308.471 320.096C308.978 320.603 309.485 321.11 309.739 321.617C309.992 321.87 309.992 322.377 309.992 322.884V323.138H310.245L313.541 323.898H313.794L314.047 323.645L314.301 323.391H314.554L314.808 323.138C314.808 322.884 315.061 322.884 315.061 322.631C315.568 322.124 316.075 321.87 316.836 321.617C317.343 321.617 317.85 321.617 318.356 321.617C318.863 321.617 319.37 321.87 319.877 321.87L321.652 322.124L322.158 322.377L323.933 322.884C324.44 323.138 324.947 323.138 325.454 323.391C325.96 323.645 326.467 323.898 326.974 324.152C327.481 324.659 327.988 325.166 328.242 325.673C328.495 326.18 328.495 326.433 328.495 326.94V327.194H328.749L332.044 328.207H332.297L332.551 327.954L332.804 327.701L333.058 327.447L333.311 327.194H333.565C334.071 326.687 334.832 326.433 335.339 326.433C335.846 326.433 336.353 326.433 336.86 326.433C337.367 326.433 337.874 326.687 338.38 326.687L339.901 326.94L340.408 327.194L342.182 327.701C342.182 327.447 342.182 327.194 342.182 327.194H342.436C342.436 326.94 342.436 326.687 342.436 326.433L342.943 324.659C344.21 322.124 342.943 320.096 341.169 319.336ZM353.842 301.085C357.137 297.789 356.884 292.466 353.589 289.171C353.335 288.918 353.335 288.918 353.082 288.664C354.095 286.129 355.109 283.594 356.377 281.313L365.502 270.667C365.755 270.413 366.009 269.906 366.009 269.653C366.262 269.399 366.769 269.146 367.276 269.146H369.304C372.852 269.146 376.147 267.625 378.682 265.09C379.442 264.33 380.203 263.316 380.456 262.302C382.23 259.007 380.963 255.204 377.922 253.176C377.161 252.669 376.908 251.909 377.161 251.149V250.895V250.642L377.415 250.388C378.682 249.881 379.696 249.121 380.456 248.107C380.963 247.6 381.217 247.093 381.47 246.586C382.737 244.051 382.737 241.263 381.47 238.728C380.963 237.714 380.71 236.7 380.963 235.686L381.217 234.672C381.47 233.912 381.724 233.151 382.23 232.644L382.737 232.137C385.526 229.095 385.526 224.533 382.991 221.491C382.484 220.731 381.977 219.97 381.724 218.956C381.724 218.449 381.724 218.196 381.47 217.689C381.47 216.928 381.47 216.168 381.977 215.661C384.765 212.112 384.005 207.042 380.456 204.508C379.949 204.001 379.189 203.747 378.682 203.494C378.175 203.24 377.668 202.987 377.668 202.48C377.415 201.719 377.415 200.705 377.668 199.945C378.175 198.931 378.175 197.917 378.175 196.903C378.175 192.34 374.626 188.792 370.064 188.792H369.557L368.797 187.778C368.29 187.271 368.036 186.257 368.036 185.496C368.036 183.215 367.276 181.187 365.755 179.666C364.234 177.892 362.206 176.878 360.179 176.878C359.672 176.878 359.165 176.878 358.658 177.131H358.404C357.391 177.385 356.63 177.131 355.616 176.878C355.363 176.624 354.856 176.371 354.349 176.117C353.842 175.864 353.335 175.357 352.828 174.597C351.561 172.062 348.773 170.287 345.731 170.287C344.21 170.287 342.689 170.794 341.169 171.555C340.662 171.808 339.901 172.062 339.141 172.062L336.353 171.808C335.592 171.808 334.832 171.048 334.832 170.287C334.832 169.273 334.578 168.259 334.325 167.246C333.818 166.232 333.058 165.218 332.297 164.457C331.03 163.19 329.256 162.429 327.481 162.176C325.961 162.176 324.44 161.669 323.426 160.655L322.412 159.895C321.398 159.134 320.638 158.12 320.131 157.106C318.863 154.064 315.822 152.037 312.527 152.037H311.766C311.259 152.037 310.752 152.037 310.499 152.29H309.739C308.218 152.543 306.697 152.544 305.176 152.037C304.416 151.53 303.655 151.023 302.895 150.262C300.36 146.967 295.798 146.206 292.249 148.488C291.489 148.995 290.475 149.248 289.208 149.248H288.447C287.433 149.248 286.673 148.741 285.913 147.981C282.617 144.939 277.548 145.192 274.506 148.234C273.746 148.995 272.732 149.755 271.718 150.262C271.465 150.262 268.677 151.53 267.916 150.769C265.888 148.995 263.354 148.234 260.566 148.741V148.488C260.566 138.095 253.722 128.97 243.583 126.181L243.33 125.928C242.316 125.421 241.809 124.66 241.302 123.9L240.542 118.323V118.07C240.795 117.816 241.049 117.816 241.555 117.816L249.92 119.591C250.68 119.337 251.441 118.577 251.694 117.816V111.226C251.694 110.719 251.187 110.212 250.68 110.212C250.68 110.212 250.68 110.212 250.427 110.212L242.062 111.733C241.555 111.733 240.795 111.479 240.795 110.972C240.795 110.719 240.795 110.719 240.795 110.465L242.316 102.607C242.316 102.1 242.062 101.34 241.302 101.34C241.302 101.34 241.302 101.34 241.049 101.34H233.445C232.684 101.593 232.177 102.354 231.924 103.368L233.445 111.226V111.479C233.191 111.733 232.938 111.733 232.431 111.733L224.066 110.212C223.306 110.465 222.545 111.226 222.545 111.986V118.83C222.545 119.337 223.052 119.844 223.559 119.844H223.813L232.177 118.07C232.684 118.07 233.445 118.323 233.445 118.83V119.084L232.684 124.66V124.914C232.431 125.421 231.67 125.928 231.163 126.181L230.91 126.435C224.573 128.209 219.504 132.518 216.462 138.348C214.688 141.644 213.674 145.192 213.674 148.995C213.167 148.995 212.66 148.741 212.153 148.741C210.125 148.741 208.098 149.502 206.577 150.769C205.563 151.53 203.028 150.262 202.775 150.262C201.761 149.755 200.747 149.248 199.987 148.234C196.945 144.939 191.876 144.939 188.581 147.981C187.82 148.741 187.06 148.995 186.046 149.248H185.285C184.272 149.248 183.258 148.995 182.244 148.488C178.695 146.206 174.133 146.967 171.598 150.262C171.091 151.023 170.331 151.53 169.57 152.037C168.05 152.544 166.529 152.543 165.008 152.29H164.248C163.741 152.29 163.234 152.037 162.98 152.037H162.22C158.925 152.037 155.883 154.064 154.616 157.106V157.36C154.109 158.374 153.348 159.134 152.588 159.895L151.574 160.655C150.307 161.669 148.786 162.176 147.265 162.176C145.491 162.429 143.717 163.19 142.449 164.457C141.435 165.218 140.928 166.232 140.422 167.246L140.168 167.499L139.915 167.753C139.408 168.766 139.154 169.78 139.408 170.794V171.048C139.154 171.301 138.647 171.555 138.14 171.555L135.352 171.808C134.592 171.808 133.831 171.808 133.324 171.301C132.057 170.287 130.536 170.034 128.762 170.034C125.72 170.034 122.932 171.808 121.665 174.343C121.411 174.85 120.904 175.357 120.144 175.864C119.384 176.117 119.13 176.371 118.877 176.624C118.116 176.878 117.102 177.131 116.089 176.878H115.835C116.342 177.131 115.835 177.131 115.328 177.131C113.047 177.131 110.766 178.145 109.245 179.92C108.485 180.934 107.724 181.948 107.217 183.215C106.71 184.229 106.457 185.243 106.71 186.51C106.71 186.764 106.71 187.271 106.71 187.524C106.71 187.778 106.457 187.778 106.457 188.031L105.696 189.045H105.189C100.627 189.299 97.0784 193.101 96.825 197.664C96.825 198.677 97.0784 199.691 97.3319 200.705C97.5854 201.466 97.5854 202.226 97.3319 202.733C97.0784 203.24 96.825 203.494 96.318 203.494C94.2903 204.508 92.516 206.282 91.7556 208.31C90.4883 210.845 90.9952 214.14 92.7695 216.421C93.5299 217.182 93.5299 217.689 93.5299 218.449C93.5299 218.956 93.5299 219.21 93.2764 219.717C93.2764 219.97 93.2764 219.97 93.2764 220.224C93.0229 220.731 92.7695 221.237 92.516 221.491C91.7556 222.251 91.2487 223.012 90.9952 224.026C90.4883 225.04 90.2348 226.054 90.2348 227.068C90.2348 229.095 90.9952 231.123 92.516 232.644C93.2764 233.405 93.5299 234.165 93.7833 235.179L94.0368 236.193C94.0368 236.953 94.0368 237.714 93.7833 238.474V238.728C93.5299 238.981 93.5299 239.488 93.2764 239.742C91.5021 243.798 93.2764 248.36 97.0784 250.388C97.5854 250.642 97.8388 250.895 98.0923 251.402V251.656C98.0923 251.909 98.0923 252.162 98.0923 252.669C98.0923 252.923 97.8388 252.923 97.5854 253.176C96.318 253.937 95.3042 255.204 94.7972 256.725C94.0368 258.753 94.0368 261.034 94.7972 262.809C96.825 267.625 101.894 268.892 105.443 269.146H107.471C108.231 269.146 108.991 269.653 109.752 271.174L118.877 281.82C120.144 284.101 121.158 286.383 121.918 288.918C121.158 289.678 120.398 290.692 119.891 291.706C119.13 292.973 118.877 294.241 118.877 295.508C118.877 299.564 121.918 303.113 125.974 303.873C126.227 304.38 126.481 304.887 126.734 305.394C129.015 308.943 133.324 310.717 137.38 308.943C178.695 294.748 237.247 295.508 237.247 295.508C237.5 295.508 296.051 295.001 337.113 308.943C340.662 310.21 344.464 309.196 346.998 306.408C347.505 305.901 348.012 305.394 348.266 304.634L348.773 303.62C350.8 303.62 352.575 302.606 353.842 301.085ZM376.654 245.572C376.654 245.825 376.401 246.332 376.147 246.586C375.387 247.346 374.373 247.6 373.359 247.346C371.838 247.093 370.571 245.318 371.078 243.798C371.078 243.544 371.331 243.037 371.585 242.784C372.345 242.023 373.359 241.77 374.373 242.023C375.894 242.277 376.908 244.051 376.654 245.572ZM378.682 229.856C378.682 230.109 378.428 230.363 378.175 230.616C377.415 231.377 376.401 231.63 375.387 231.377C373.866 231.123 372.599 229.349 373.106 227.828C373.106 227.575 373.359 227.068 373.613 226.814C374.373 226.054 375.387 225.8 376.401 226.054C377.922 226.561 378.935 228.335 378.682 229.856ZM374.88 210.338C376.401 210.591 377.668 212.366 377.161 213.886C377.161 214.14 376.908 214.393 376.908 214.647C376.147 215.407 375.133 215.661 374.12 215.407C372.599 215.154 371.331 213.38 371.838 211.859C371.838 211.605 372.092 211.352 372.092 211.098C372.852 210.338 373.866 210.084 374.88 210.338ZM366.262 197.664C366.262 197.41 366.515 197.157 366.515 196.903C367.276 196.143 368.29 195.889 369.304 196.143C370.824 196.396 372.092 198.171 371.585 199.691C371.585 199.945 371.331 200.198 371.331 200.452C370.571 201.212 369.557 201.466 368.543 201.212C367.022 200.959 366.009 199.438 366.262 197.664ZM97.8388 211.859C98.3458 211.098 99.1062 210.591 99.8666 210.338C101.387 209.831 103.162 210.845 103.669 212.366V212.619C103.669 213.126 103.669 213.633 103.669 214.14C103.162 214.9 102.401 215.407 101.641 215.661C100.12 216.168 98.3458 215.154 97.8388 213.38C97.8388 212.873 97.8388 212.366 97.8388 211.859ZM96.5715 229.349C96.318 228.842 96.318 228.335 96.5715 227.828C97.0784 227.068 97.8389 226.561 98.5993 226.307C100.12 225.8 101.894 226.814 102.401 228.335C102.401 228.842 102.401 229.349 102.401 229.856C101.894 230.616 101.134 231.123 100.374 231.377C98.5993 231.884 96.825 230.87 96.5715 229.349ZM104.176 245.572C103.669 246.332 102.908 246.839 102.148 247.093C100.627 247.6 98.8527 246.586 98.3458 244.811C98.0923 244.304 98.0923 243.798 98.3458 243.291C98.8527 242.53 99.6131 242.023 100.374 241.77C101.894 241.263 103.669 242.277 104.176 243.798C104.176 244.558 104.176 245.065 104.176 245.572ZM108.738 199.691C108.231 200.452 107.471 200.959 106.71 201.212C105.189 201.719 103.415 200.705 102.908 198.931C102.908 198.424 102.908 197.917 102.908 197.41C103.415 196.65 104.176 196.143 104.936 195.889C106.457 195.382 108.231 196.396 108.738 197.917C108.991 198.931 108.991 199.438 108.738 199.691ZM355.87 186.003C355.87 185.75 356.123 185.496 356.123 185.243C356.884 184.482 357.898 184.229 358.911 184.482C360.432 184.736 361.7 186.51 361.193 188.031C361.193 188.285 360.939 188.538 360.939 188.792C360.179 189.552 359.165 189.806 358.151 189.552C356.63 189.299 355.616 187.778 355.87 186.003ZM341.676 179.666C341.676 179.413 341.929 179.159 341.929 178.906C342.689 178.145 343.703 177.892 344.971 178.145C346.491 178.399 347.759 180.173 347.252 181.694C347.252 181.948 346.998 182.201 346.998 182.455C346.238 183.215 345.224 183.722 343.957 183.215C342.436 182.962 341.422 181.187 341.676 179.666ZM329.002 183.975C330.523 184.229 331.79 186.003 331.283 187.524C331.283 187.778 331.03 188.031 331.03 188.031C330.269 188.792 329.002 189.299 327.988 189.045C326.467 188.792 325.2 187.017 325.707 185.496C325.707 185.243 325.96 184.989 325.96 184.736C326.721 183.975 327.988 183.722 329.002 183.975ZM328.242 202.48C326.721 202.226 325.454 200.452 325.96 198.931C325.96 198.677 326.214 198.424 326.214 198.171C326.974 197.41 327.988 196.903 329.256 197.41C330.776 197.664 332.044 199.438 331.537 200.959C331.537 201.212 331.283 201.466 331.283 201.719C330.269 202.48 329.256 202.733 328.242 202.48ZM329.509 214.14C329.509 214.393 329.256 214.647 329.256 214.9C328.495 215.661 327.481 215.914 326.214 215.661C324.693 215.407 323.426 213.633 323.933 212.112C323.933 211.859 324.186 211.605 324.186 211.352C324.947 210.591 325.96 210.338 327.228 210.591C328.749 210.845 329.763 212.366 329.509 214.14ZM322.412 171.808C322.412 171.555 322.412 171.301 322.665 171.048C323.426 170.287 324.693 169.78 325.707 170.034C327.228 170.287 328.495 172.062 327.988 173.583C327.988 173.836 327.735 174.09 327.735 174.09C326.974 174.85 325.707 175.357 324.693 175.104C323.172 175.104 322.158 173.329 322.412 171.808ZM319.877 225.547C319.877 225.293 320.131 225.04 320.131 224.786C320.891 224.026 321.905 223.772 323.172 224.026C324.693 224.279 325.96 226.054 325.454 227.575C325.454 227.828 325.2 228.082 325.2 228.335C324.44 229.095 323.426 229.349 322.158 229.095C320.638 228.842 319.624 227.068 319.877 225.547ZM292.756 156.853C292.756 156.599 292.756 156.599 293.01 156.346C293.77 155.332 295.037 155.078 296.051 155.332C297.572 155.585 298.839 157.36 298.332 158.881C298.332 159.134 298.332 159.134 298.079 159.388C297.319 160.401 296.051 160.655 295.037 160.401C293.517 160.148 292.503 158.374 292.756 156.853ZM276.788 155.332C276.788 155.078 276.788 155.078 277.041 154.825C277.802 153.811 279.069 153.557 280.083 153.811C281.604 154.064 282.871 155.839 282.364 157.36C282.364 157.613 282.364 157.613 282.11 157.867C281.35 158.881 280.083 159.134 279.069 158.881C277.548 158.627 276.534 157.106 276.788 155.332ZM192.89 155.078C193.396 154.318 193.903 153.811 194.917 153.811C196.438 153.304 198.212 154.318 198.719 155.839C198.973 156.346 198.973 156.853 198.719 157.613C198.212 158.374 197.705 158.627 196.945 158.881C194.917 159.388 193.143 158.627 192.636 156.853C192.636 156.346 192.636 155.839 192.89 155.078ZM176.921 156.599C177.428 155.839 177.935 155.332 178.949 155.332C180.47 154.825 182.244 155.839 182.751 157.36C183.004 157.867 183.004 158.374 182.751 158.881C182.244 159.641 181.737 159.895 180.723 160.148C179.202 160.655 177.428 159.641 176.921 157.867C176.668 157.613 176.668 157.106 176.921 156.599ZM155.376 226.054C155.376 226.561 155.376 227.068 155.123 227.828C154.616 228.589 154.109 229.095 153.095 229.095C151.574 229.602 149.8 228.589 149.293 226.814C149.039 226.307 149.039 225.8 149.293 225.04C149.8 224.279 150.56 223.772 151.321 223.772C153.348 223.265 154.869 224.279 155.376 226.054C155.376 225.8 155.376 226.054 155.376 226.054ZM149.293 215.661C147.772 216.168 145.998 215.154 145.491 213.38C145.237 212.873 145.237 212.366 145.491 211.605C145.998 210.845 146.758 210.338 147.519 210.084C149.04 209.577 150.814 210.591 151.321 212.112C151.574 212.619 151.574 213.126 151.321 213.633C150.814 214.9 150.053 215.407 149.293 215.661ZM147.012 171.555C147.519 170.794 148.279 170.287 149.039 170.034C150.56 169.527 152.335 170.541 152.842 172.062C153.095 172.569 153.095 173.076 152.842 173.583C152.335 174.343 151.828 174.85 150.814 175.104C149.293 175.61 147.519 174.597 147.012 172.822C147.012 172.569 147.012 172.062 147.012 171.555ZM143.717 185.243C144.224 184.482 144.984 183.975 145.744 183.722C147.265 183.215 149.039 184.229 149.546 185.75C149.8 186.257 149.8 186.764 149.546 187.271C149.039 188.031 148.279 188.538 147.519 188.792C145.998 189.299 144.224 188.285 143.717 186.51C143.717 186.257 143.717 185.75 143.717 185.243ZM143.717 198.677C144.224 197.917 144.984 197.41 145.744 197.157C147.265 196.65 149.039 197.664 149.546 199.184C149.8 199.691 149.8 200.198 149.546 200.705C149.039 201.466 148.279 201.973 147.519 202.226C145.998 202.733 144.224 201.719 143.717 199.945C143.717 199.691 143.717 199.184 143.717 198.677ZM127.748 179.413C128.255 178.652 129.015 178.145 129.776 177.892C131.297 177.385 133.071 178.399 133.578 179.92C133.578 180.427 133.578 180.934 133.578 181.441C133.071 182.201 132.311 182.708 131.55 182.962C130.029 183.468 128.255 182.455 127.748 180.68C127.748 180.427 127.748 179.92 127.748 179.413ZM113.807 186.003C114.314 185.243 115.075 184.736 115.835 184.482C117.356 183.975 119.13 184.989 119.637 186.51C119.637 187.017 119.637 187.524 119.637 188.031C119.13 188.792 118.37 189.299 117.609 189.552C116.089 190.059 114.314 189.045 113.807 187.271C113.807 187.017 113.807 186.51 113.807 186.003ZM130.536 297.029C130.029 297.789 129.269 298.296 128.509 298.55C126.734 299.057 124.96 298.043 124.453 296.522C124.2 296.015 124.2 295.255 124.453 294.748C124.96 293.987 125.72 293.48 126.481 293.227C126.734 293.227 126.988 293.227 127.495 293.227C128.002 293.227 128.762 293.48 129.269 293.734C130.029 294.241 130.536 294.748 130.536 295.508C130.536 295.762 130.536 296.269 130.536 297.029ZM144.984 293.227C144.477 293.987 143.717 294.494 142.956 294.748C141.182 295.255 139.661 294.241 139.154 292.466C138.901 291.959 138.901 291.199 139.154 290.692C139.661 289.931 140.422 289.424 141.182 289.171C141.435 289.171 141.689 289.171 141.942 289.171C142.449 289.171 143.21 289.425 143.717 289.678C144.477 290.185 144.731 290.692 144.984 291.452C144.984 292.213 144.984 292.72 144.984 293.227ZM159.432 290.185C158.925 290.945 158.164 291.452 157.404 291.452C155.63 291.706 154.109 290.692 153.602 289.171C153.602 288.664 153.602 287.904 153.855 287.397C154.362 286.636 155.123 286.129 155.883 285.876H156.644C157.404 285.876 157.911 286.129 158.418 286.383C159.178 286.89 159.432 287.397 159.685 288.157C159.685 289.171 159.685 289.678 159.432 290.185ZM164.755 270.667C164.501 271.174 163.994 271.427 163.234 271.174L151.574 270.413C148.533 270.16 145.744 268.385 143.97 265.851L143.463 265.09C142.449 263.316 140.928 262.048 138.901 261.034C133.324 257.993 128.255 254.19 123.439 249.881C123.439 249.881 107.217 231.123 115.328 211.605C115.582 211.098 115.835 210.591 116.089 209.831C119.891 201.719 127.241 195.636 135.859 192.847C135.606 196.65 135.859 200.705 136.62 204.508C137.633 209.831 139.154 216.421 140.675 221.744C141.942 226.054 144.477 232.644 146.758 238.728C147.772 241.263 149.546 243.291 151.828 244.811C154.869 246.839 157.15 249.881 158.418 253.43L160.446 258.753L163.487 267.118L164.248 269.146C164.755 269.906 164.755 270.16 164.755 270.667ZM165.515 165.218C163.994 165.725 162.22 164.711 161.713 162.936C161.459 162.429 161.459 161.922 161.713 161.415C162.22 160.655 162.98 160.148 163.741 160.148C165.261 159.641 167.036 160.655 167.543 162.176C167.796 162.683 167.796 163.19 167.543 163.697C167.036 164.457 166.275 164.964 165.515 165.218ZM174.133 287.65C173.626 288.411 172.866 288.918 172.105 288.918C170.331 289.171 168.81 288.157 168.303 286.383C168.303 285.876 168.303 285.369 168.557 284.862C169.063 284.101 169.824 283.594 170.838 283.594H171.345C172.105 283.594 172.612 283.848 173.372 284.101C173.879 284.608 174.386 285.369 174.64 286.129C174.386 286.636 174.133 287.143 174.133 287.65ZM188.834 285.622C188.327 286.383 187.567 286.89 186.553 286.89C184.779 287.143 183.258 286.129 183.004 284.355C183.004 283.848 183.004 283.341 183.258 282.834C183.765 282.073 184.525 281.567 185.539 281.567H186.046C186.806 281.567 187.567 281.82 188.074 282.327C188.581 282.834 189.088 283.594 189.088 284.355C189.088 284.862 188.834 285.369 188.834 285.622ZM203.789 282.58C203.789 283.087 203.789 283.594 203.535 284.101C203.028 284.862 202.014 285.369 201.254 285.369C199.48 285.622 197.959 284.355 197.705 282.58C197.705 282.073 197.705 281.567 197.959 281.06C198.466 280.299 199.48 280.046 200.24 279.792H200.494C201.254 279.792 202.014 280.046 202.521 280.553C203.282 281.313 203.535 282.073 203.789 282.58ZM218.236 283.087C217.729 283.848 216.716 284.355 215.955 284.355C214.181 284.355 212.66 283.087 212.66 281.567C212.66 281.06 212.66 280.553 212.914 280.046V279.792C213.42 279.032 214.434 278.778 215.195 278.778C215.955 278.778 216.716 279.032 217.476 279.539C217.983 280.046 218.49 280.806 218.49 281.567C218.49 282.327 218.49 282.834 218.236 283.087ZM217.476 229.095C217.223 230.87 216.462 232.898 215.448 234.419C214.688 235.94 213.674 237.207 212.914 238.474C211.9 239.742 211.393 241.263 211.393 242.784L209.618 256.725C209.618 256.725 209.618 256.979 209.618 257.232C208.098 258.753 205.816 259.513 203.535 259.26C203.028 259.26 202.521 259.007 202.014 258.753C198.973 257.486 196.438 254.951 195.171 251.656L192.129 245.065C190.862 242.277 185.539 240.249 182.751 239.488C181.737 238.981 180.723 238.728 180.47 238.221C173.372 221.998 164.501 196.143 169.064 184.989C169.317 184.482 169.57 183.975 169.824 183.468C178.949 171.301 206.83 174.343 214.941 176.117C217.223 176.624 218.997 178.652 218.997 180.934C220.264 196.903 219.504 213.126 217.476 229.095ZM233.445 281.313C233.445 281.82 233.445 282.327 233.191 282.834C232.684 283.594 231.67 284.101 230.656 284.101C228.882 284.101 227.615 282.834 227.361 281.06C227.361 280.553 227.361 280.046 227.615 279.792L227.868 279.539C228.375 278.778 229.389 278.525 230.149 278.525C230.91 278.525 231.924 278.778 232.431 279.539C232.938 279.792 233.191 280.553 233.445 281.313ZM240.288 216.675C239.528 218.196 237.753 218.956 236.486 218.196C235.219 217.435 234.205 215.661 234.965 214.393C235.726 212.873 237.5 212.112 238.767 212.873C239.781 213.38 240.542 214.393 240.542 215.661C240.542 215.914 240.288 216.421 240.288 216.675ZM240.288 205.015C239.781 206.535 238.007 207.296 236.486 206.535C234.965 206.028 234.205 204.254 234.965 202.733C235.472 201.212 237.247 200.452 238.767 201.212C239.781 201.719 240.542 202.733 240.542 204.001C240.542 204.254 240.288 204.761 240.288 205.015ZM240.288 192.847C239.781 194.368 238.007 195.129 236.486 194.368C234.965 193.861 234.205 192.087 234.965 190.566C235.472 189.045 237.247 188.285 238.767 189.045C239.781 189.552 240.542 190.566 240.542 191.833C240.542 192.087 240.288 192.34 240.288 192.847ZM240.288 180.934C239.781 182.455 238.007 183.215 236.486 182.455C234.965 181.948 234.205 180.173 234.965 178.652C235.472 177.131 237.247 176.371 238.767 177.131C239.781 177.638 240.542 178.652 240.542 179.92C240.542 180.173 240.288 180.427 240.288 180.934ZM240.288 169.527C239.781 171.048 238.007 171.808 236.486 171.048C234.965 170.541 234.205 168.766 234.965 167.246C235.726 165.725 237.247 164.964 238.767 165.725C239.781 166.232 240.542 167.246 240.542 168.513C240.542 168.766 240.288 169.273 240.288 169.527ZM240.288 157.867C239.781 159.388 238.007 160.148 236.486 159.641C234.965 159.134 234.205 157.36 234.712 155.839C235.219 154.318 236.993 153.557 238.514 154.064C239.528 154.571 240.288 155.585 240.288 156.853C240.288 157.106 240.288 157.613 240.288 157.867ZM247.639 282.834C247.132 283.594 246.118 284.101 245.104 283.848C243.33 283.848 242.062 282.58 242.062 280.806C242.062 280.299 242.062 279.792 242.316 279.539L242.569 279.285C243.076 278.778 244.09 278.271 244.851 278.271C245.864 278.271 246.625 278.525 247.132 279.285C247.639 279.792 247.892 280.553 247.892 281.313C247.892 281.82 247.892 282.327 247.639 282.834ZM255.243 144.686C249.667 143.418 243.837 142.658 238.007 142.658C232.177 142.911 226.347 143.418 220.771 144.686C220.264 144.686 220.011 144.432 220.011 144.179C220.011 143.925 220.011 143.925 220.011 143.672C220.264 143.165 220.518 142.404 220.771 141.644C221.025 140.883 221.531 140.123 222.292 139.616C226.094 139.109 229.896 138.855 233.698 138.855V138.095H233.951L234.458 131.251C234.712 130.997 234.965 130.997 235.472 130.997L237.753 131.251L240.035 130.997C240.795 130.997 241.302 131.504 241.302 132.011L241.809 138.855C245.611 138.602 249.413 138.855 253.215 139.616C253.975 139.869 255.243 142.658 256.003 144.179V144.432C255.496 144.939 255.243 144.939 255.243 144.686ZM262.34 283.341C261.833 284.101 260.819 284.608 259.805 284.355C258.031 284.355 256.764 282.834 256.764 281.06C256.764 280.553 257.017 280.299 257.017 279.792L257.271 279.539C257.777 279.032 258.791 278.778 259.552 278.778H259.805C260.819 278.778 261.579 279.285 262.086 279.792C262.593 280.299 262.847 281.06 262.847 281.82C262.847 282.58 262.593 282.834 262.34 283.341ZM277.548 283.341C277.548 283.848 277.295 284.101 277.041 284.608C276.281 285.369 275.267 285.876 274.253 285.622C272.479 285.369 271.211 284.101 271.211 282.327C271.211 281.82 271.465 281.567 271.465 281.06L271.718 280.806C272.225 280.299 272.986 280.046 273.746 280.046H273.999C274.76 280.046 275.774 280.553 276.281 281.313C277.548 281.82 277.548 282.58 277.548 283.341ZM292.503 284.862C292.503 285.369 292.249 285.622 291.996 285.876C291.235 286.636 290.221 286.89 289.208 286.89C287.433 286.636 286.166 285.115 286.419 283.341C286.419 282.834 286.673 282.58 286.673 282.327L286.926 282.074C287.433 281.567 288.194 281.313 288.954 281.313H289.461C290.475 281.313 291.235 281.82 291.742 282.58C292.249 283.341 292.503 284.101 292.503 284.862ZM307.204 287.143C307.204 287.397 306.95 287.904 306.697 288.157C305.937 288.918 304.923 289.171 303.909 289.171C302.134 288.918 300.867 287.397 301.121 285.622C301.121 285.369 301.374 284.862 301.374 284.608L301.628 284.355C302.134 283.848 302.895 283.594 303.655 283.848H304.162C304.923 284.101 305.936 284.355 306.443 285.115C306.95 285.622 307.204 286.383 307.204 287.143ZM295.291 238.728C294.784 238.981 294.023 239.488 293.517 239.488C290.728 240.502 285.659 242.277 284.138 244.811C283.885 245.065 283.631 245.318 283.631 245.825L280.59 252.416C280.336 253.176 279.829 253.683 279.576 254.444C278.308 256.472 276.281 257.993 274.253 258.753C273.746 259.007 273.239 259.26 272.732 259.26C270.704 259.513 266.649 258.246 266.395 256.218L264.621 242.277C264.621 238.728 259.045 233.912 258.284 228.589C256.003 212.619 255.496 196.396 256.764 180.427C256.764 179.666 257.017 179.159 257.271 178.399C258.031 177.385 259.045 176.624 260.312 176.371C268.677 174.597 296.558 171.301 305.43 183.722C312.273 193.101 302.895 221.238 295.291 238.728ZM307.964 161.669C307.964 161.415 307.964 161.162 308.218 161.162C308.978 160.401 310.245 159.895 311.259 160.148C312.78 160.401 314.047 162.176 313.541 163.697C313.541 163.95 313.541 163.95 313.287 164.204C312.527 164.964 311.259 165.471 310.245 165.218C308.471 164.964 307.457 163.443 307.964 161.669C307.711 161.669 307.711 161.669 307.964 161.669ZM321.652 289.678C321.652 289.931 321.398 290.438 321.145 290.692C320.384 291.452 319.37 291.706 318.356 291.452C316.582 291.199 315.568 289.424 315.822 287.904C315.822 287.65 316.075 287.143 316.075 286.89L316.582 286.636C317.089 286.383 317.85 286.129 318.356 286.129H319.117C320.131 286.383 320.891 286.89 321.398 287.65C321.652 288.157 321.905 288.918 321.652 289.678ZM336.099 292.973C336.099 293.227 335.846 293.734 335.592 293.987C334.832 294.748 333.565 295.001 332.551 294.748C330.776 294.494 329.763 292.72 330.016 290.945C330.016 290.692 330.269 290.185 330.523 289.931L331.03 289.678C331.537 289.425 332.297 289.171 332.804 289.171C333.058 289.171 333.311 289.171 333.565 289.171C334.325 289.424 335.339 289.931 335.592 290.692C336.353 291.452 336.353 292.213 336.099 292.973ZM350.8 296.776C350.8 297.029 350.547 297.283 350.293 297.536C349.533 298.296 348.266 298.55 347.252 298.296C345.478 297.789 344.464 296.269 344.971 294.494C344.971 294.241 345.224 293.987 345.478 293.734L345.985 293.48C346.491 293.227 346.998 292.973 347.505 292.973C347.759 292.973 348.012 292.973 348.519 292.973C349.533 293.227 350.293 293.734 350.547 294.494C350.8 295.255 350.8 296.015 350.8 296.776ZM351.814 249.881C347.252 254.19 341.929 257.993 336.353 261.034C334.832 261.795 333.565 263.062 332.551 264.33C332.044 264.837 331.79 265.344 331.537 265.851L331.03 266.611C330.776 266.865 330.776 267.118 330.523 267.118C328.749 269.146 326.467 270.413 323.679 270.413L312.273 271.174C311.259 271.174 310.499 270.667 310.499 269.653C310.499 269.399 310.499 269.146 310.499 268.892L311.259 266.865L314.301 258.5L316.329 253.176C317.596 249.881 319.624 247.093 322.665 245.065C324.186 244.051 325.2 243.037 326.214 241.516C326.974 240.502 327.481 239.488 327.988 238.474C330.523 232.391 332.804 225.8 334.071 221.238C335.592 215.914 337.113 209.07 338.127 203.747C338.887 200.198 339.141 196.396 339.141 192.847C347.505 195.382 354.602 201.466 358.404 209.577C367.783 228.082 354.602 246.332 351.814 249.881ZM104.936 393.86L84.1515 418.701L86.9397 420.982L107.724 396.141L104.936 393.86ZM132.311 442.275L123.439 406.787L106.71 436.191L109.752 437.966L122.172 416.166L131.043 451.654L147.772 422.25L144.731 420.475L132.311 442.275ZM179.456 433.403C177.428 432.643 175.147 432.389 172.866 432.643C168.557 433.15 164.501 435.177 161.459 438.726C159.939 440.501 158.925 442.528 158.418 444.556C157.657 446.584 157.657 448.866 157.911 451.147C158.418 455.456 160.699 459.512 163.994 462.3C165.768 463.821 167.543 464.835 169.824 465.342C171.345 465.849 173.119 466.102 174.893 466.102C176.668 466.102 178.442 465.849 179.963 465.089L181.23 460.779C179.709 461.54 177.681 462.3 175.907 462.554C174.133 462.807 172.359 462.554 170.584 462.047C168.81 461.54 167.289 460.779 166.022 459.512C164.755 458.498 163.741 456.977 162.727 455.456C161.966 453.935 161.459 452.161 161.206 450.386C160.952 446.838 161.966 443.289 164.248 440.754C165.261 439.487 166.782 438.219 168.303 437.459C169.824 436.698 171.345 436.191 173.119 435.938C174.893 435.684 176.668 435.938 178.188 436.445C179.963 436.952 181.483 437.712 183.004 438.98C184.525 440.247 185.539 441.768 186.299 443.289L187.567 438.98C185.539 436.445 182.751 434.417 179.456 433.403ZM203.028 472.186L219.757 473.96L220.011 470.665L206.83 469.144L208.098 456.47L220.771 457.737L221.025 454.442L208.351 453.175L209.365 443.542L222.545 445.063L222.799 441.768L206.07 439.994L203.028 472.186ZM272.986 438.98L271.718 442.528L277.041 441.515L282.871 469.905L286.419 469.144L280.083 437.459L272.986 438.98ZM305.43 434.164L321.905 427.319L315.568 460.272L318.863 460.779L326.467 421.996L304.416 431.122L305.43 434.164ZM401.494 395.381C400.227 394.113 398.959 393.353 397.439 392.846C395.918 392.339 394.144 392.339 392.623 392.846C393.13 391.578 393.13 390.057 392.876 388.536C392.623 387.016 391.862 385.748 390.848 384.734C390.088 383.72 389.074 383.213 387.807 382.706C386.793 382.199 385.526 381.946 384.512 381.946C383.244 381.946 382.23 382.199 381.217 382.706C380.203 383.213 378.935 383.974 378.175 384.734C376.401 386.255 375.387 388.537 375.387 390.818C375.387 393.099 376.147 395.381 377.668 397.155L380.203 394.62C379.189 393.606 378.682 392.085 378.682 390.818C378.682 389.55 379.442 388.283 380.203 387.523C382.484 385.241 386.286 385.495 388.314 387.776C388.821 388.283 389.328 389.043 389.581 389.804C389.835 390.564 389.835 391.325 389.581 391.832C389.328 392.592 389.074 393.099 388.821 393.86C388.314 394.62 387.807 395.127 387.3 395.888L389.581 398.422C390.848 397.155 392.369 396.141 394.397 396.141C396.171 396.141 397.692 396.901 398.959 398.169C400.227 399.436 400.987 400.957 400.987 402.732C400.987 404.506 400.227 406.027 398.959 407.294C397.946 408.308 396.425 409.069 394.65 409.069C393.13 409.069 391.609 408.562 390.342 407.548L387.807 410.083C388.821 411.097 389.835 411.603 390.848 412.11C391.862 412.617 393.13 412.871 394.397 412.617C395.664 412.617 396.678 412.364 397.946 411.857C399.213 411.35 400.227 410.59 400.987 409.829C402.001 408.815 402.761 407.801 403.268 406.534C403.775 405.266 404.029 404.253 404.282 402.985C404.282 401.718 404.029 400.45 403.775 399.183C403.015 397.662 402.255 396.395 401.494 395.381ZM369.811 420.982C368.29 418.701 366.009 416.927 363.22 416.42C361.953 416.166 360.432 416.166 359.165 416.42C357.898 416.673 356.377 417.18 355.363 417.941C354.602 418.448 353.842 419.208 353.335 419.968L354.096 407.548L350.8 407.294L349.787 425.545C349.787 427.066 349.787 428.587 350.04 429.854C350.293 431.122 350.8 432.389 351.561 433.657C352.321 434.924 353.335 435.938 354.602 436.698C357.137 438.219 359.925 438.98 362.967 438.473C364.488 438.219 365.755 437.712 367.022 436.952C368.29 436.191 369.304 435.177 370.064 433.91C371.838 431.375 372.345 428.587 371.838 425.545C371.331 423.771 370.571 422.25 369.811 420.982ZM368.036 428.84C367.783 429.854 367.529 430.615 367.022 431.629C366.009 433.403 364.234 434.417 362.206 434.924C361.193 435.177 360.179 435.177 359.165 434.924C358.151 434.67 357.391 434.417 356.377 433.657C355.616 433.15 354.856 432.389 354.349 431.375C353.842 430.615 353.335 429.601 353.335 428.587C353.082 427.573 353.082 426.559 353.335 425.799C353.589 424.785 353.842 424.024 354.602 423.264C355.87 421.489 357.391 420.475 359.418 419.968C360.432 419.715 361.446 419.715 362.206 419.968C363.22 420.222 363.981 420.475 364.995 420.982C365.755 421.489 366.515 422.25 367.022 423.01C367.529 423.771 368.036 424.785 368.036 425.799C368.036 427.066 368.036 428.08 368.036 428.84ZM0.253467 224.279L13.4338 224.533L13.1804 241.263L0 241.009V244.558L32.444 245.318V241.77L16.4755 241.516L16.7289 224.786L32.6974 225.04V221.491L0.253467 220.731V224.279ZM34.7252 204.761L35.7391 200.959L27.3746 194.875L30.6697 181.441L40.555 179.666L41.5688 175.864L5.06937 182.201L34.7252 204.761ZM24.5864 192.594L13.1804 184.229L27.1211 181.948L24.5864 192.594ZM61.3394 134.8L30.9232 119.844L29.4023 123.139L51.961 134.293L16.9824 145.192L47.3986 160.148L48.9194 156.853L26.6142 145.953L61.3394 134.8ZM74.7732 113C76.294 111.226 77.5614 109.198 78.5752 106.916C79.3356 104.889 79.8426 102.607 79.5891 100.579C79.5891 98.2981 78.8287 96.0167 77.8148 93.9888C76.801 91.961 75.2801 90.1866 73.5059 88.6657C71.7316 87.1448 69.7038 86.1309 67.4226 85.3704C63.1137 84.103 58.5512 84.8634 54.7492 87.3983C52.9749 88.9192 51.2006 90.4401 49.6798 92.2145L45.8778 97.0306L70.9712 117.563L74.7732 113ZM50.6937 96.7772L52.2145 94.7493C53.4819 93.2284 54.7492 91.961 56.27 90.6936C57.7908 89.6796 59.3116 89.1727 61.0859 88.9192C62.8602 88.6657 64.6345 88.6657 66.4087 89.1727C68.183 89.6796 69.7038 90.4401 71.2247 91.7075C72.7455 92.7214 73.7593 94.2423 74.5197 95.7632C75.2802 97.2841 75.7871 99.0585 76.0406 100.833C76.294 102.607 75.7871 104.382 75.2801 105.903C74.5197 107.677 73.5059 109.198 72.2385 110.719L70.7177 112.747L50.6937 96.7772ZM96.825 87.6518L99.8666 85.3704L89.7279 65.5987L112.287 77.5124L106.203 52.6711L122.932 67.3731L125.974 65.0917L99.6131 42.0248L106.964 70.6684L80.8565 56.4733L96.825 87.6518ZM141.689 56.4733L141.435 46.5875L154.109 40.7573L161.459 47.6014L165.008 45.827L137.633 20.9856L138.14 57.9942L141.689 56.4733ZM151.321 38.2225L141.435 42.7852L140.928 28.5901L151.321 38.2225ZM186.553 39.4899C188.834 38.983 191.115 38.2225 193.396 37.2086C195.424 36.1946 196.945 34.6737 198.212 32.6459C199.48 30.8715 200.494 28.5901 201.001 26.5623C201.507 24.2809 201.254 21.9996 200.747 19.7182C200.24 17.4369 199.226 15.1555 197.959 13.3811C195.171 9.83237 191.115 7.55102 186.553 7.04405C184.272 7.04405 181.737 7.29753 179.456 7.8045L173.626 9.07192L180.723 40.7573L186.553 39.4899ZM180.47 11.0998C182.244 10.5928 184.272 10.3393 186.046 10.5928C187.82 10.5928 189.341 11.0998 190.862 12.1137C192.383 12.8742 193.903 14.1416 194.917 15.6625C195.931 17.1834 196.692 18.9578 197.199 20.7321C197.705 22.5065 197.705 24.2809 197.452 26.0553C197.199 27.8297 196.438 29.3506 195.424 30.8715C194.41 32.3924 193.143 33.6598 191.622 34.4203C189.848 35.4342 188.074 35.9412 186.046 36.4481L183.511 36.9551L177.935 11.8602L180.47 11.0998ZM239.274 33.1528V29.8576L226.094 30.111L225.84 17.4369L238.767 17.1834V13.8881L225.84 14.1416L225.334 4.50922L238.514 4.25573V0.960449L221.785 1.46742L222.799 33.9133L239.274 33.1528ZM297.065 8.81843L293.517 7.8045L285.406 39.2364L288.954 40.2504L297.065 8.81843ZM321.905 24.5344L333.818 59.0081L348.012 28.0832L344.717 26.5623L334.325 49.3758L322.412 14.902L308.471 45.5735L311.766 47.0944L321.905 24.5344ZM381.47 92.9749C382.737 93.7354 384.005 94.2423 385.272 94.2423C386.539 94.4958 387.807 94.2423 389.074 93.9888C392.116 92.7214 394.65 90.1866 395.157 86.8913C395.411 85.1169 395.157 83.0891 394.144 81.5682C395.411 81.8216 396.678 81.8216 397.692 81.3147C398.959 80.8077 399.973 80.3008 400.734 79.2868C401.748 78.2729 402.508 77.0055 403.015 75.738C403.522 74.4706 403.522 73.4567 403.268 72.1893C403.015 70.9219 402.508 69.9079 401.748 68.6405C400.987 67.3731 399.973 66.3592 398.959 65.3452L395.157 61.543L372.599 84.8634L377.922 90.1866C378.935 91.2005 380.203 92.2145 381.47 92.9749ZM395.411 66.6126L396.425 67.6266C397.185 68.387 397.946 69.1475 398.706 69.9079C399.213 70.4149 399.466 71.1753 399.72 71.9358C399.973 72.6962 399.973 73.4567 399.72 74.2171C399.466 75.2311 398.959 75.9915 398.199 76.752C397.439 77.5124 396.678 78.0194 395.664 78.5264C394.904 78.7798 394.144 78.7798 393.383 78.5264C392.623 78.2729 391.862 78.0194 391.102 77.5124C390.341 77.0055 389.581 76.245 388.821 75.4846L387.807 74.4706L395.411 66.6126ZM385.526 76.752L387.807 79.0333C388.567 79.7938 389.328 80.5542 390.088 81.5682C390.595 82.3286 391.102 83.0891 391.609 84.103C391.862 84.8634 392.116 85.8774 391.862 86.6378C391.609 87.6518 391.102 88.6657 390.342 89.1727C389.581 89.9331 388.821 90.4401 387.807 90.6936C387.046 90.9471 386.033 90.9471 385.272 90.6936C384.258 90.4401 383.498 89.9331 382.737 89.4261C381.724 88.9192 380.963 88.1587 380.203 87.3983L377.668 84.8634L385.526 76.752ZM420.758 116.549L423.546 114.521L416.195 104.128L424.053 98.5515L431.657 109.198L434.445 107.17L424.56 93.4819L398.199 112.24L408.084 125.928L410.872 123.9L403.268 113.254L413.661 105.903L420.758 116.549ZM439.514 148.488C441.796 148.995 444.077 148.995 446.105 147.727C447.625 147.22 448.639 146.206 449.653 144.939C450.414 143.925 450.92 142.658 451.174 141.39C451.174 140.123 451.174 138.602 450.92 137.335C450.414 135.814 449.907 134.293 449.4 133.025L447.372 128.716L417.97 142.658L419.49 145.953L432.417 139.869L432.671 140.63L424.053 155.585L426.081 159.641L434.698 144.179C435.712 146.206 437.487 147.727 439.514 148.488ZM445.598 133.786L446.105 134.8C446.612 135.814 447.118 136.828 447.372 137.841C447.625 138.602 447.879 139.616 447.625 140.376C447.625 141.137 447.372 142.151 446.865 142.658C446.105 143.418 445.344 144.179 444.33 144.686C443.316 145.192 442.303 145.446 441.289 145.446C440.528 145.446 439.514 145.192 439.007 144.686C438.247 144.179 437.74 143.418 437.233 142.658C436.726 141.897 436.219 140.883 435.712 139.869L435.205 138.855L445.598 133.786ZM463.847 171.555L462.833 168.006L431.657 176.878L435.205 189.045L438.501 188.031L435.966 179.413L463.847 171.555ZM470.944 204.761L470.438 201.212L438.247 205.775L438.754 209.324L470.944 204.761ZM475 230.616L441.289 229.602V233.151L466.382 233.912L439.007 258.246L472.972 259.26V255.711L447.879 254.951L475 230.616Z" fill="#0E1940"/>
</svg>
